# File created by Blade
# Date/Time:  Thu Jan 22 15:49:58 2015
# Frame Rate: 120.000 fps
#------------------------------------------------------
:FULLY-SPECIFIED
:DEGREES
617
root 3.219223 37.080728 5.371889 -1.016919 -1.433294 2.963192
RightUpLeg 10.460720 -7.193916 -5.879224
RightLeg -5.898228 -0.000000 0.000000
RightFoot -11.890117 -13.348868 16.729245
RightToeBase 13.867404 -0.000000 -0.000000
LeftUpLeg 8.427152 4.534130 1.182654
LeftLeg -3.097987 -0.000000 0.000000
LeftFoot -7.045096 7.077822 -17.071545
LeftToeBase 8.495128 -0.000000 -0.000000
Spine -1.530580 -5.915196 -4.147652
RightShoulder -7.357558 12.425871 -45.078919
RightArm 52.208333 68.422669 54.396549
RightForeArm 76.601185 0.000000 124.330251
RightHand 18.206700 -0.000000 -8.531711
RightHandThumb1 -24.326973 -0.000000 -32.862282
LeftShoulder -29.120110 7.543782 36.439040
LeftArm 180.577679 -39.377311 -113.554163
LeftForeArm -24.668309 -0.000000 144.595625
LeftHand -6.453231 -0.000000 -8.413337
LeftHandThumb1 -26.253704 0.000000 33.147579
Head 17.873530 12.750818 0.454618
618
root 3.218575 37.081277 5.370128 -0.993594 -1.449880 2.956315
RightUpLeg 10.425804 -7.188263 -5.869506
RightLeg -5.881391 -0.000000 0.000000
RightFoot -11.961563 -13.308695 16.844596
RightToeBase 14.075635 -0.000000 -0.000000
LeftUpLeg 8.405979 4.547457 1.188655
LeftLeg -3.102207 -0.000000 0.000000
LeftFoot -7.046493 7.080120 -17.085487
LeftToeBase 8.484636 -0.000000 -0.000000
Spine -1.555348 -5.927529 -4.137628
RightShoulder -7.358406 12.426111 -45.082416
RightArm 52.358784 68.482391 54.578842
RightForeArm 76.572098 -0.000000 124.364965
RightHand 18.131747 0.000000 -8.601637
RightHandThumb1 -24.326973 -0.000000 -32.862282
LeftShoulder -29.124572 7.552258 36.426144
LeftArm 180.709708 -39.377547 -113.641012
LeftForeArm -24.687433 -0.000000 144.588855
LeftHand -6.468030 -0.000000 -8.411308
LeftHandThumb1 -26.253704 0.000000 33.147579
Head 17.787787 12.808201 0.469515
619
root 3.217930 37.081761 5.368807 -0.973965 -1.472003 2.951478
RightUpLeg 10.397386 -7.190373 -5.862260
RightLeg -5.878801 -0.000000 0.000000
RightFoot -11.945350 -13.294408 16.843632
RightToeBase 14.051687 -0.000000 -0.000000
LeftUpLeg 8.394669 4.569283 1.192369
LeftLeg -3.118667 -0.000000 0.000000
LeftFoot -7.018983 7.088558 -17.044625
LeftToeBase 8.413944 -0.000000 -0.000000
Spine -1.574380 -5.913590 -4.134414
RightShoulder -7.366798 12.499113 -45.091563
RightArm 52.282262 68.497554 54.539227
RightForeArm 76.526588 -0.000000 124.399806
RightHand 18.121737 -0.000000 -8.703304
RightHandThumb1 -24.326973 -0.000000 -32.862282
LeftShoulder -29.094613 7.517240 36.447569
LeftArm 180.819403 -39.367129 -113.703516
LeftForeArm -24.714870 0.000000 144.567977
LeftHand -6.521176 -0.000000 -8.497656
LeftHandThumb1 -26.253704 0.000000 33.147579
Head 17.702686 12.834706 0.483319
620
root 3.216431 37.082367 5.366893 -0.950218 -1.495556 2.942125
RightUpLeg 10.359732 -7.177562 -5.847033
RightLeg -5.864356 -0.000000 0.000000
RightFoot -11.945299 -13.282950 16.852209
RightToeBase 14.039004 -0.000000 -0.000000
LeftUpLeg 8.369829 4.606016 1.205758
LeftLeg -3.115969 -0.000000 0.000000
LeftFoot -7.026789 7.065793 -17.077675
LeftToeBase 8.466222 -0.000000 -0.000000
Spine -1.599882 -5.918777 -4.127330
RightShoulder -7.381770 12.522495 -45.093577
RightArm 52.395015 68.504684 54.669748
RightForeArm 76.504967 0.000000 124.409822
RightHand 18.147496 -0.000000 -8.562523
RightHandThumb1 -24.326973 -0.000000 -32.862282
LeftShoulder -29.103898 7.523351 36.438421
LeftArm 180.923654 -39.358938 -113.753825
LeftForeArm -24.711125 0.000000 144.553308
LeftHand -6.518931 -0.000000 -8.527879
LeftHandThumb1 -26.253704 0.000000 33.147579
Head 17.627579 12.875511 0.506063
621
root 3.216006 37.082894 5.365097 -0.929075 -1.515365 2.938531
RightUpLeg 10.325752 -7.173604 -5.841597
RightLeg -5.853589 -0.000000 0.000000
RightFoot -11.933714 -13.270504 16.826307
RightToeBase 14.059845 -0.000000 -0.000000
LeftUpLeg 8.353281 4.603800 1.205297
LeftLeg -3.125108 -0.000000 0.000000
LeftFoot -7.025294 7.092005 -17.087750
LeftToeBase 8.453279 -0.000000 -0.000000
Spine -1.620327 -5.908066 -4.123146
RightShoulder -7.382270 12.521657 -45.102804
RightArm 52.432841 68.578420 54.764075
RightForeArm 76.486638 -0.000000 124.501946
RightHand 18.205608 -0.000000 -8.940980
RightHandThumb1 -24.326973 -0.000000 -32.862282
LeftShoulder -29.098338 7.521516 36.421192
LeftArm 181.037122 -39.361722 -113.811697
LeftForeArm -24.710788 -0.000000 144.534123
LeftHand -6.532114 0.000000 -8.515705
LeftHandThumb1 -26.253704 0.000000 33.147579
Head 17.551269 12.877437 0.504889
622
root 3.215196 37.083578 5.362923 -0.910279 -1.541096 2.931782
RightUpLeg 10.292470 -7.158054 -5.823621
RightLeg -5.850589 -0.000000 0.000000
RightFoot -11.872757 -13.323836 16.733584
RightToeBase 13.877900 -0.000000 -0.000000
LeftUpLeg 8.328709 4.642353 1.212800
LeftLeg -3.116940 -0.000000 0.000000
LeftFoot -7.032255 7.088608 -17.067910
LeftToeBase 8.449695 -0.000000 -0.000000
Spine -1.639022 -5.892769 -4.113659
RightShoulder -7.401652 12.507067 -45.112208
RightArm 52.656446 68.600248 55.013630
RightForeArm 76.421907 0.000000 124.540301
RightHand 18.187264 -0.000000 -9.030531
RightHandThumb1 -24.326973 -0.000000 -32.862282
LeftShoulder -29.146119 7.551771 36.339979
LeftArm 181.111254 -39.420408 -113.868131
LeftForeArm -24.648792 -0.000000 144.522952
LeftHand -6.435710 -0.000000 -8.331548
LeftHandThumb1 -26.253704 0.000000 33.147579
Head 17.485638 12.873754 0.496997
623
root 3.214735 37.083976 5.360907 -0.890851 -1.558930 2.929627
RightUpLeg 10.261947 -7.161354 -5.821558
RightLeg -5.842537 -0.000000 0.000000
RightFoot -11.848901 -13.299512 16.699800
RightToeBase 13.857826 -0.000000 -0.000000
LeftUpLeg 8.306044 4.650809 1.212562
LeftLeg -3.110424 -0.000000 0.000000
LeftFoot -7.033325 7.092641 -17.088833
LeftToeBase 8.493854 -0.000000 -0.000000
Spine -1.658310 -5.887019 -4.113024
RightShoulder -7.420335 12.506414 -45.113415
RightArm 52.791197 68.622716 55.170102
RightForeArm 76.397855 -0.000000 124.559380
RightHand 18.163416 -0.000000 -9.037972
RightHandThumb1 -24.326973 -0.000000 -32.862282
LeftShoulder -29.147542 7.543761 36.321378
LeftArm 181.179925 -39.433852 -113.889580
LeftForeArm -24.646838 -0.000000 144.496882
LeftHand -6.459571 0.000000 -8.314925
LeftHandThumb1 -26.253704 0.000000 33.147579
Head 17.416698 12.880162 0.499380
624
root 3.214299 37.083946 5.359951 -0.880706 -1.587505 2.928210
RightUpLeg 10.241304 -7.150545 -5.820208
RightLeg -5.829746 -0.000000 0.000000
RightFoot -11.923414 -13.249255 16.818788
RightToeBase 14.032747 -0.000000 -0.000000
LeftUpLeg 8.297800 4.662719 1.211333
LeftLeg -3.110266 -0.000000 0.000000
LeftFoot -7.042907 7.112178 -17.075012
LeftToeBase 8.518277 -0.000000 -0.000000
Spine -1.667795 -5.863499 -4.111968
RightShoulder -7.438640 12.543058 -45.132371
RightArm 52.783452 68.632966 55.213740
RightForeArm 76.382694 -0.000000 124.592259
RightHand 18.140686 -0.000000 -9.075354
RightHandThumb1 -24.326973 -0.000000 -32.862282
LeftShoulder -29.145306 7.541704 36.304179
LeftArm 181.259500 -39.456198 -113.920297
LeftForeArm -24.666926 0.000000 144.466298
LeftHand -6.430577 -0.000000 -8.303474
LeftHandThumb1 -26.253704 0.000000 33.147579
Head 17.353630 12.876600 0.495280
625
root 3.213588 37.084272 5.357368 -0.879528 -1.615156 2.922017
RightUpLeg 10.226138 -7.134176 -5.812086
RightLeg -5.822489 -0.000000 0.000000
RightFoot -11.911483 -13.242550 16.805341
RightToeBase 14.030368 -0.000000 -0.000000
LeftUpLeg 8.290182 4.674099 1.218382
LeftLeg -3.096357 -0.000000 0.000000
LeftFoot -7.050931 7.116095 -17.076175
LeftToeBase 8.448361 -0.000000 -0.000000
Spine -1.653721 -5.841091 -4.126058
RightShoulder -7.289151 11.135833 -44.620438
RightArm 56.345296 69.634269 58.088754
RightForeArm 76.442390 -0.000000 124.455736
RightHand 18.099522 -0.000000 -9.151100
RightHandThumb1 -24.326973 -0.000000 -32.862282
LeftShoulder -29.126730 7.493780 36.362455
LeftArm 181.305747 -39.503663 -113.953060
LeftForeArm -24.712091 -0.000000 144.429629
LeftHand -6.448614 -0.000000 -8.267838
LeftHandThumb1 -26.253704 0.000000 33.147579
Head 17.277462 12.876283 0.547700
626
root 3.212959 37.084714 5.354773 -0.871142 -1.638748 2.912027
RightUpLeg 10.206183 -7.124520 -5.799495
RightLeg -5.817298 -0.000000 0.000000
RightFoot -11.907204 -13.230063 16.814039
RightToeBase 14.060356 -0.000000 -0.000000
LeftUpLeg 8.276741 4.687445 1.228319
LeftLeg -3.090738 -0.000000 0.000000
LeftFoot -7.057441 7.131303 -17.075540
LeftToeBase 8.421672 -0.000000 -0.000000
Spine -1.649303 -5.817102 -4.126743
RightShoulder -7.206559 10.255806 -44.299247
RightArm 58.716746 70.233481 60.023216
RightForeArm 76.461317 -0.000000 124.377996
RightHand 18.112597 -0.000000 -9.277485
RightHandThumb1 -24.326973 -0.000000 -32.862282
LeftShoulder -29.111233 7.456616 36.397972
LeftArm 181.345734 -39.535661 -113.979859
LeftForeArm -24.806902 -0.000000 144.393274
LeftHand -6.521399 -0.000000 -8.082083
LeftHandThumb1 -26.253704 0.000000 33.147579
Head 17.209006 12.864505 0.580119
627
root 3.211657 37.084767 5.353083 -0.865822 -1.663534 2.910370
RightUpLeg 10.194369 -7.117799 -5.794917
RightLeg -5.819559 -0.000000 0.000000
RightFoot -11.898060 -13.232513 16.798857
RightToeBase 14.010083 -0.000000 -0.000000
LeftUpLeg 8.267084 4.688031 1.229104
LeftLeg -3.074719 -0.000000 0.000000
LeftFoot -7.070610 7.134872 -17.093726
LeftToeBase 8.492157 -0.000000 -0.000000
Spine -1.647947 -5.789796 -4.131868
RightShoulder -7.221412 10.290930 -44.309801
RightArm 58.696515 70.242412 60.048982
RightForeArm 76.420000 0.000000 124.409777
RightHand 18.037475 -0.000000 -9.332706
RightHandThumb1 -24.326973 -0.000000 -32.862282
LeftShoulder -29.095506 7.445121 36.394668
LeftArm 181.405916 -39.543392 -114.006089
LeftForeArm -24.840716 -0.000000 144.367038
LeftHand -6.514372 -0.000000 -8.096989
LeftHandThumb1 -26.253704 0.000000 33.147579
Head 17.159832 12.857671 0.591520
628
root 3.209720 37.084744 5.350888 -0.863079 -1.685635 2.903681
RightUpLeg 10.187112 -7.114551 -5.786731
RightLeg -5.826027 -0.000000 0.000000
RightFoot -11.883265 -13.213337 16.789649
RightToeBase 14.010570 -0.000000 -0.000000
LeftUpLeg 8.260471 4.695718 1.237697
LeftLeg -3.070833 -0.000000 0.000000
LeftFoot -7.074946 7.152587 -17.082102
LeftToeBase 8.498376 -0.000000 -0.000000
Spine -1.644947 -5.786010 -4.126595
RightShoulder -7.246335 10.397278 -44.355395
RightArm 58.544146 70.169048 59.978949
RightForeArm 76.356208 -0.000000 124.442175
RightHand 17.987328 -0.000000 -9.367242
RightHandThumb1 -24.326973 -0.000000 -32.862282
LeftShoulder -29.084356 7.453575 36.396474
LeftArm 181.471231 -39.534400 -114.035386
LeftForeArm -24.881088 0.000000 144.353577
LeftHand -6.551362 -0.000000 -8.134617
LeftHandThumb1 -26.253704 0.000000 33.147579
Head 17.130770 12.886773 0.593631
